<svg width="21" height="21" viewBox="0 0 21 21" fill="none" xmlns="http://www.w3.org/2000/svg">
<path d="M11.8125 2.625C7.46375 2.625 3.9375 6.15125 3.9375 10.5H1.3125L4.8125 13.9912L8.3125 10.5H5.6875C5.6875 7.11375 8.42625 4.375 11.8125 4.375C15.1987 4.375 17.9375 7.11375 17.9375 10.5C17.9375 13.8862 15.1987 16.625 11.8125 16.625C10.1238 16.625 8.5925 15.9338 7.49 14.8225L6.2475 16.065C7.67375 17.4913 9.63375 18.375 11.8125 18.375C16.1612 18.375 19.6875 14.8487 19.6875 10.5C19.6875 6.15125 16.1612 2.625 11.8125 2.625ZM10.9375 7V11.375L14.6562 13.58L15.33 12.46L12.25 10.6312V7H10.9375Z" fill="#5584AC"/>
</svg>
