<svg width="28" height="30" viewBox="0 0 28 30" fill="none" xmlns="http://www.w3.org/2000/svg">
<path d="M13.5228 27.1875C14.7622 27.1875 15.7763 26.0625 15.7763 24.6875H11.2692C11.2692 26.0625 12.272 27.1875 13.5228 27.1875ZM20.2833 19.6875V13.4375C20.2833 9.6 18.4354 6.3875 15.2129 5.5375V4.6875C15.2129 3.65 14.458 2.8125 13.5228 2.8125C12.5875 2.8125 11.8326 3.65 11.8326 4.6875V5.5375C8.59881 6.3875 6.76219 9.5875 6.76219 13.4375V19.6875L5.30867 21.3C4.59881 22.0875 5.09458 23.4375 6.0974 23.4375H20.9368C21.9397 23.4375 22.4467 22.0875 21.7368 21.3L20.2833 19.6875Z" fill="#9D9D9D"/>
</svg>
