<svg width="26" height="26" viewBox="0 0 26 26" fill="none" xmlns="http://www.w3.org/2000/svg">
<path d="M20.5824 16.7037L15.6207 21.6653C15.1982 22.0878 14.5049 22.0878 14.0824 21.6653C13.6599 21.2428 13.6599 20.5495 14.0824 20.127L17.2024 17.0178H6.1849C5.58906 17.0178 5.10156 16.5303 5.10156 15.9345V5.10116C5.10156 4.50532 5.58906 4.01782 6.1849 4.01782C6.78073 4.01782 7.26823 4.50532 7.26823 5.10116V14.8512H17.2024L14.0824 11.742C13.6599 11.3195 13.6599 10.6262 14.0824 10.2037C14.5049 9.78116 15.1982 9.78116 15.6207 10.2037L20.5824 15.1653C21.0049 15.5878 21.0049 16.2812 20.5824 16.7037Z" fill="#222222"/>
</svg>
