<svg width="32" height="32" viewBox="0 0 32 32" fill="none" xmlns="http://www.w3.org/2000/svg">
<circle cx="16" cy="16" r="16" fill="#5584AC"/>
<path d="M16.0002 16C18.3013 16 20.1668 14.1345 20.1668 11.8333C20.1668 9.53211 18.3013 7.66663 16.0002 7.66663C13.699 7.66663 11.8335 9.53211 11.8335 11.8333C11.8335 14.1345 13.699 16 16.0002 16Z" stroke="white" stroke-width="1.5" stroke-linecap="round" stroke-linejoin="round"/>
<path d="M22.0085 19.1167L19.0585 22.0667C18.9418 22.1834 18.8335 22.4 18.8085 22.5584L18.6502 23.6833C18.5919 24.0917 18.8752 24.375 19.2835 24.3167L20.4085 24.1583C20.5668 24.1333 20.7919 24.025 20.9002 23.9084L23.8502 20.9584C24.3585 20.45 24.6002 19.8583 23.8502 19.1083C23.1085 18.3667 22.5169 18.6083 22.0085 19.1167Z" stroke="white" stroke-width="1.5" stroke-miterlimit="10" stroke-linecap="round" stroke-linejoin="round"/>
<path d="M21.5835 19.5416C21.8335 20.4416 22.5335 21.1416 23.4335 21.3916" stroke="white" stroke-width="1.5" stroke-miterlimit="10" stroke-linecap="round" stroke-linejoin="round"/>
<path d="M8.8418 24.3333C8.8418 21.1083 12.0502 18.5 16.0002 18.5C16.8668 18.5 17.7001 18.625 18.4751 18.8583" stroke="white" stroke-width="1.5" stroke-linecap="round" stroke-linejoin="round"/>
</svg>
