<svg width="105" height="24" viewBox="0 0 105 24" fill="none" xmlns="http://www.w3.org/2000/svg">
<path d="M5.69531 5.91406C5.79297 5.75781 6.02734 5.63086 6.38867 5.54297C6.74023 5.45508 7.13086 5.39648 7.55078 5.38672C7.9707 5.37695 8.3125 5.40625 8.5957 5.47461C8.86914 5.54297 8.97656 5.66016 8.91797 5.81641C8.39062 6.91992 7.96094 8.30664 7.61914 9.97656C7.27734 11.6465 7.02344 13.1406 6.83789 14.4395C6.88672 15.4941 7.0918 16.4121 7.46289 17.2129C8.17578 18.7949 8.89844 19.5664 9.62109 19.5469C10.3438 19.5273 11.0859 18.7656 11.8477 17.252C12.4043 16.1582 12.7754 14.8984 12.9707 13.4727C13.166 12.0371 13.1367 10.6016 12.9023 9.16602C12.668 7.7207 12.1797 6.44141 11.4473 5.30859C10.5781 4.04883 9.62109 3.24805 8.57617 2.90625C7.53125 2.57422 6.53516 2.68164 5.58789 3.24805C4.63086 3.81445 3.86914 4.82031 3.2832 6.26562C3.20508 6.42188 2.99023 6.54883 2.63867 6.64648C2.28711 6.73438 1.90625 6.79297 1.48633 6.8125C1.06641 6.82227 0.705078 6.80273 0.421875 6.73438C0.128906 6.66602 0.00195312 6.55859 0.0507812 6.40234C0.626953 4.99609 1.53516 3.89258 2.78516 3.0918C4.03516 2.29102 5.42188 1.8125 6.94531 1.65625C8.45898 1.50977 9.91406 1.70508 11.3105 2.25195C12.707 2.78906 13.8398 3.70703 14.709 4.99609C15.4609 6.19727 15.959 7.56445 16.1934 9.08789C16.418 10.6016 16.418 12.1152 16.1836 13.6094C15.9395 15.1035 15.5 16.4219 14.8555 17.5547C14.2793 18.5117 13.5078 19.2734 12.541 19.8301C11.5645 20.377 10.5293 20.6895 9.43555 20.7383C8.33203 20.7969 7.29688 20.5527 6.32031 20.0059C6.32031 20.123 6.33008 20.2402 6.33008 20.3477C6.32031 20.5039 6.1543 20.6309 5.83203 20.7285C5.51953 20.8359 5.14844 20.9043 4.71875 20.9336C4.29883 20.9727 3.92773 20.9629 3.5957 20.9141C3.27344 20.8555 3.09766 20.7578 3.07812 20.6016C3.04883 19.459 3.15625 17.916 3.39062 15.9824C3.625 14.0488 3.94727 12.1445 4.35742 10.2598C4.75781 8.36523 5.20703 6.91992 5.69531 5.91406ZM23.5664 9.19531C23.7227 9.20508 24.0449 9.22461 24.5039 9.26367C24.8164 9.29297 25.1289 9.32227 25.4414 9.3418C25.7539 9.37109 26.0176 9.39062 26.2422 9.41016C26.457 9.41992 26.5742 9.42969 26.584 9.42969C26.8672 9.30273 27.2188 9.22461 27.6289 9.18555C28.0488 9.14648 28.4395 9.14648 28.8008 9.18555C29.1621 9.22461 29.3965 9.29297 29.5137 9.40039C29.6309 9.49805 29.5332 9.63477 29.2109 9.79102C28.4883 10.1035 27.5801 10.2793 26.5059 10.3184C25.4414 10.3477 24.3965 10.3281 23.3711 10.25C23.3418 10.4355 23.3027 10.6309 23.2734 10.8359C23.0195 12.1934 22.7754 13.6777 22.5508 15.2793C22.3164 16.8809 22.2188 18.3164 22.2578 19.5859C22.3555 19.625 22.4531 19.6641 22.5703 19.7129C23 19.8887 23.5078 20.0742 24.0742 20.2598C24.6406 20.4453 25.1875 20.543 25.7246 20.5625C26.2617 20.582 26.7012 20.4355 27.0332 20.1133C27.3848 19.7324 27.6094 19.293 27.707 18.7754C27.8145 18.2578 27.8438 17.75 27.8047 17.252C27.8145 17.0957 27.9707 16.9688 28.293 16.8613C28.6055 16.7637 28.9766 16.6953 29.3965 16.6562C29.8262 16.627 30.1973 16.627 30.5293 16.6855C30.8516 16.7344 31.0273 16.832 31.0566 16.9883C31.1348 17.9453 30.998 18.7754 30.6465 19.459C30.3047 20.1426 29.6797 20.6699 28.7812 21.041C28.2246 21.2559 27.4336 21.373 26.3887 21.4121C25.3535 21.4414 24.2695 21.4023 23.1562 21.2852C22.0332 21.168 21.0762 21.002 20.2852 20.7773C19.4941 20.5527 19.0742 20.2891 19.0156 19.9863C18.9375 18.7363 19.0352 17.1348 19.2988 15.1914C19.5527 13.2383 19.8848 11.2754 20.2852 9.30273C20.6855 7.33008 21.0664 5.67969 21.4277 4.37109C21.2715 4.42969 21.0176 4.47852 20.666 4.51758C20.3145 4.55664 19.9629 4.58594 19.6016 4.58594C19.2305 4.58594 18.9473 4.54688 18.752 4.47852C18.5566 4.41016 18.5371 4.2832 18.6836 4.11719C19.6992 3.0918 20.7832 2.37891 21.9355 1.98828C23.0879 1.58789 24.2793 1.42188 25.5 1.49023C26.7305 1.54883 27.9512 1.75391 29.1914 2.10547C30.4219 2.44727 31.623 2.84766 32.7949 3.30664C33.0781 3.41406 33.1465 3.54102 33.0195 3.6582C32.8828 3.78516 32.6289 3.89258 32.2676 3.98047C31.8965 4.06836 31.5156 4.12695 31.0957 4.14648C30.6855 4.16602 30.334 4.11719 30.0605 4.0293C29.2598 3.69727 28.4492 3.41406 27.6289 3.16992C26.8086 2.93555 25.9688 2.81836 25.0801 2.82812C24.582 4.3418 24.0742 6.4707 23.5664 9.19531ZM34.1719 3.44336C34.1719 3.28711 34.3281 3.16016 34.6406 3.05273C34.9531 2.94531 35.3242 2.87695 35.7441 2.83789C36.1738 2.80859 36.5449 2.80859 36.877 2.85742C37.209 2.90625 37.3945 3.01367 37.4238 3.16016C37.541 4.18555 37.6582 5.2207 37.7754 6.27539C37.9902 8.28711 38.2344 10.3086 38.498 12.3398C38.7715 14.3613 39.123 16.334 39.543 18.2383C40.4902 15.709 41.252 12.9062 41.8379 9.83984C42.4336 6.76367 42.7266 3.92188 42.7266 1.31445C42.7363 1.1582 42.9121 1.02148 43.2344 0.923828C43.5566 0.826172 43.9277 0.757812 44.3477 0.71875C44.7773 0.689453 45.1484 0.699219 45.4707 0.757812C45.793 0.806641 45.959 0.914062 45.9785 1.06055C45.9785 2.83789 45.8125 4.88867 45.4902 7.19336C45.1582 9.49805 44.709 11.7637 44.123 13.9902C43.5371 16.207 42.8535 18.1309 42.0723 19.7617C41.5742 20.748 40.9492 21.4023 40.207 21.7344C39.4648 22.0664 38.752 22.0664 38.0684 21.7148C37.3848 21.3633 36.877 20.6504 36.5449 19.5664C36.0371 17.6719 35.627 15.6211 35.3242 13.4141C35.0215 11.2168 34.7676 9.0293 34.543 6.86133C34.4258 5.66992 34.2988 4.53711 34.1719 3.44336ZM52.7852 3.4043C52.7852 3.24805 52.9414 3.12109 53.2539 3.01367C53.5664 2.91602 53.9375 2.83789 54.3574 2.80859C54.7871 2.76953 55.1582 2.7793 55.4902 2.82812C55.8223 2.87695 55.998 2.97461 56.0371 3.13086C56.2031 4.6543 56.3496 6.22656 56.457 7.86719C56.5449 9.03906 56.6426 10.2109 56.75 11.373C56.8574 12.5352 57.0039 13.6582 57.1797 14.7422C57.209 14.8984 57.2285 15.0449 57.248 15.1816C57.3262 15.8066 57.4238 16.1094 57.5605 16.0898C57.6973 16.0703 58.0195 15.6699 58.5273 14.8887C59.1035 14.0391 59.5527 13.1113 59.8848 12.1055C60.2168 11.0996 60.4512 10.0645 60.5977 9.00977C60.7344 7.95508 60.8027 6.93945 60.8027 5.97266C60.8223 5.81641 60.9883 5.68945 61.3105 5.58203C61.623 5.48438 61.9941 5.41602 62.4141 5.37695C62.834 5.34766 63.2148 5.35742 63.5371 5.40625C63.8594 5.46484 64.0352 5.5625 64.0547 5.71875C64.123 6.27539 64.1914 6.85156 64.2598 7.42773C64.4551 9.25391 64.6895 11.0898 64.9531 12.9551C65.2168 14.8105 65.5586 16.6074 65.9883 18.3262C66.8574 15.7773 67.5508 12.9551 68.0684 9.86914C68.5859 6.79297 68.8496 3.93164 68.8496 1.31445C68.8594 1.1582 69.0352 1.02148 69.3574 0.923828C69.6699 0.826172 70.0508 0.757812 70.4707 0.71875C70.8906 0.689453 71.2715 0.699219 71.5938 0.757812C71.916 0.806641 72.082 0.914062 72.1016 1.06055C72.1016 2.80859 71.9551 4.86914 71.6719 7.26172C71.3887 9.64453 70.9688 11.9883 70.4219 14.2832C69.875 16.5879 69.2012 18.5508 68.4102 20.1621C68.0586 20.8164 67.541 21.2949 66.8574 21.5879C66.1738 21.8809 65.5 21.9395 64.8262 21.7734C64.1523 21.6074 63.6445 21.1582 63.3027 20.4258C62.9609 19.5859 62.6875 18.6582 62.4824 17.6426C62.2773 16.627 62.1113 15.6602 61.9746 14.7422C61.9551 14.6543 61.9453 14.5762 61.9355 14.498C61.4766 15.2402 60.9199 15.9043 60.2656 16.4902C59.4453 17.2031 58.5957 17.6914 57.7168 17.9648C56.8379 18.2285 56.0566 18.1602 55.373 17.7598C54.6797 17.3594 54.2109 16.5195 53.9668 15.25C53.7715 14.1367 53.625 12.9844 53.5078 11.7832C53.3906 10.582 53.293 9.37109 53.2051 8.15039C53.0977 6.51953 52.9512 4.9375 52.7852 3.4043ZM78.8789 2.33984L78.0488 20.0449C78.6543 20.0059 79.2988 20.0254 79.9629 20.1035C80.3438 20.1523 80.5781 20.2305 80.666 20.3477C80.7539 20.4648 80.6758 20.5918 80.4316 20.7285C80.2852 20.7871 79.8652 20.875 79.1816 20.9824C78.4883 21.0898 77.7461 21.207 76.9355 21.3242C76.4082 21.4023 75.9395 21.4707 75.5195 21.5391C75.0996 21.5977 74.7969 21.6562 74.5918 21.6953C74.0645 21.793 73.5566 21.8125 73.0781 21.7441C72.5996 21.6758 72.3359 21.5586 72.2676 21.4023C72.209 21.2461 72.5312 21.0898 73.2441 20.9336C73.6348 20.8457 74.0254 20.7578 74.4062 20.6602C74.5332 20.6309 74.6602 20.6016 74.7871 20.5723L75.6074 2.92578C75.4512 2.96484 75.2949 2.99414 75.1289 3.0332C74.582 3.13086 74.0742 3.14062 73.6055 3.07227C73.1367 3.00391 72.873 2.88672 72.8242 2.73047C72.7754 2.57422 73.1074 2.41797 73.8301 2.26172C74.2988 2.16406 74.7578 2.05664 75.207 1.95898C76.0176 1.76367 76.8184 1.59766 77.6289 1.4707C78.4395 1.34375 79.3086 1.31445 80.2266 1.37305C80.6367 1.40234 80.9102 1.4707 81.0469 1.58789C81.1738 1.69531 81.1445 1.82227 80.9492 1.95898C80.7441 2.08594 80.4414 2.18359 80.0605 2.25195C79.6797 2.32031 79.2793 2.34961 78.8789 2.33984ZM83.5176 2.29102C83.5371 2.13477 83.7031 2.00781 84.0254 1.91016C84.3477 1.80273 84.7188 1.73438 85.1387 1.70508C85.5684 1.67578 85.9395 1.68555 86.2617 1.73438C86.584 1.79297 86.75 1.89062 86.7695 2.04688C86.7695 2.89648 86.7695 3.75586 86.7793 4.61523C86.7891 6.19727 86.7891 7.78906 86.7793 9.38086C88.1465 8.64844 89.2207 7.67188 89.9824 6.46094C90.7441 5.25 91.125 3.86328 91.125 2.29102C91.1445 2.13477 91.3105 2.00781 91.6328 1.91016C91.9551 1.80273 92.3262 1.73438 92.7559 1.70508C93.1758 1.67578 93.5469 1.68555 93.8691 1.73438C94.1914 1.79297 94.3672 1.89062 94.377 2.04688C94.377 3.4043 94.1133 4.61523 93.5957 5.66992C93.0684 6.72461 92.3359 7.64258 91.418 8.4043C90.4902 9.17578 89.4258 9.80078 88.2051 10.2793C89.2988 10.6602 90.2266 11.3145 90.998 12.2422C91.7598 13.1699 92.3848 14.2441 92.8633 15.4648C93.3418 16.6855 93.6934 17.9258 93.918 19.1855C94.1426 20.4453 94.25 21.5781 94.25 22.5742C94.2305 22.7305 94.0645 22.8574 93.7422 22.9648C93.4199 23.0625 93.0488 23.1309 92.6191 23.1699C92.1992 23.1992 91.8281 23.1895 91.5059 23.1309C91.1836 23.082 91.0176 22.9746 90.998 22.8281C90.998 21.6074 90.8418 20.2793 90.5391 18.8438C90.2266 17.3984 89.7676 16.041 89.1328 14.7422C88.5078 13.4531 87.707 12.3789 86.7402 11.5195C86.7012 13.1699 86.623 14.7031 86.4961 16.1387C86.3691 17.5645 86.1836 18.7656 85.9199 19.7227C85.666 20.6797 85.3242 21.2656 84.8945 21.5C84.6113 21.6172 84.2598 21.7051 83.8496 21.7441C83.4297 21.7734 83.0391 21.7734 82.6777 21.7344C82.3164 21.7051 82.082 21.627 81.9648 21.5293C81.8477 21.4219 81.9453 21.2852 82.2676 21.1289C82.6191 20.9141 82.8926 20.1426 83.0781 18.8145C83.2539 17.4863 83.3809 15.8848 83.4492 14.0098C83.5176 12.1348 83.5469 10.2793 83.5469 8.43359C83.5566 6.58789 83.5469 5.04492 83.5273 3.79492C83.5176 3.14062 83.5176 2.64258 83.5176 2.29102ZM102.258 2.33984L101.428 20.0449C102.033 20.0059 102.678 20.0254 103.342 20.1035C103.723 20.1523 103.957 20.2305 104.045 20.3477C104.133 20.4648 104.055 20.5918 103.811 20.7285C103.664 20.7871 103.244 20.875 102.561 20.9824C101.867 21.0898 101.125 21.207 100.314 21.3242C99.7871 21.4023 99.3184 21.4707 98.8984 21.5391C98.4785 21.5977 98.1758 21.6562 97.9707 21.6953C97.4434 21.793 96.9355 21.8125 96.457 21.7441C95.9785 21.6758 95.7148 21.5586 95.6465 21.4023C95.5879 21.2461 95.9102 21.0898 96.623 20.9336C97.0137 20.8457 97.4043 20.7578 97.7852 20.6602C97.9121 20.6309 98.0391 20.6016 98.166 20.5723L98.9863 2.92578C98.8301 2.96484 98.6738 2.99414 98.5078 3.0332C97.9609 3.13086 97.4531 3.14062 96.9844 3.07227C96.5156 3.00391 96.252 2.88672 96.2031 2.73047C96.1543 2.57422 96.4863 2.41797 97.209 2.26172C97.6777 2.16406 98.1367 2.05664 98.5859 1.95898C99.3965 1.76367 100.197 1.59766 101.008 1.4707C101.818 1.34375 102.688 1.31445 103.605 1.37305C104.016 1.40234 104.289 1.4707 104.426 1.58789C104.553 1.69531 104.523 1.82227 104.328 1.95898C104.123 2.08594 103.82 2.18359 103.439 2.25195C103.059 2.32031 102.658 2.34961 102.258 2.33984Z" fill="#5584AC"/>
</svg>
